DataType=double
version=3
OpenSimVersion=4.5-2023-11-26-efcdfd3eb
endheader
time	EMG01_right_gast_med	EMG02_right_glut_max	EMG03_left_gast_med	EMG04_left_glut_max	EMG05_right_glut_med	EMG06_right_bic_fem	EMG07_right_rect_fem	EMG08_right_vast_lat	EMG09_right_vast_med	EMG10_right_tens_fasc_lat	EMG11_left_glut_med	EMG12_left_bic_fem	EMG13_left_rect_fem	EMG14_left_vast_lat	EMG15_left_vast_med	EMG16_left_tens_fasc_lat
0.84	275.0850746611804	17.5726098527676	19.8751338170161	20.40827798740188	67.49858543053159	23.05189531593059	14.62712963630237	16.51633976733791	20.57397468402182	28.99051405402481	19.34462547290573	26.05562173067265	28.09122190558426	41.27603250092123	219.1048055919347	25.75616806638005
0.85	263.3428720160727	20.08893930594308	19.96151230057279	21.20478887543403	69.36670285805542	22.19055480975872	14.23776594923271	16.60535934441856	20.80864538001289	31.30109545073918	19.61755547432852	25.95440367245018	28.79968874369943	42.3474073488937	230.9465362949859	27.83876483504574
0.86	250.576637702975	22.701302402639	20.03805760917788	22.03452548010148	70.97295630097271	21.35172576573241	13.82813590817453	16.697280151137	20.96924110063837	33.64624384903068	19.83698581884791	25.75159254400366	29.39118996975801	43.25094438044187	241.7706335739033	30.07549945611785
0.87	236.9262397142311	25.39147132060014	20.11880735673714	22.88660553778531	72.2981985365558	20.54779735202124	13.400902239453	16.78686367059573	21.05343811401198	36.00637033636649	20.00043375533383	25.44878173703979	29.85994221878667	43.97614204583594	251.4377377378046	32.44796059646679
0.88	222.5398542849417	28.13931011641066	20.21832033998052	23.75030724738262	73.32657175470645	19.79073829661754	12.95870923665361	16.86872621986241	21.05962269817462	38.36080720617147	20.10597297086216	25.04866119559757	30.20164067047924	44.51450078042573	259.821493681786	34.93637506309646
0.89	207.5711474943558	30.92295268740785	20.35157816604276	24.61516379612863	74.04588605084912	19.09195197854352	12.5041561101022	16.93745397314387	20.98688833048738	40.68799159663948	20.1522909303428	24.55499656772135	30.41354224596037	44.85969396678805	266.8112870222041	37.51982876498514
0.9	192.1764842352341	33.71902645118845	20.53387245741438	25.47104188840973	74.44794939687573	18.46214078368702	12.03977697047309	16.98772667681813	20.83503969847592	42.96567635067262	20.13873664050797	23.9725879426293	30.49451898353679	45.00770174872364	272.3147508536486	40.17649211949001
0.91	176.5122323390019	36.50292101047877	20.78067702339092	26.3082041817864	74.52883035598748	17.91118100626551	11.56802751111026	17.01444618537185	20.60460396298179	45.17116767962929	20.06535589460428	23.30720809653324	30.44507925205428	44.95690208986526	276.2599404028645	42.88384630009836
0.92	160.7322198804813	39.24909978079553	21.10750529128124	27.11735646645712	74.28903695270684	17.44800986912248	11.09127796633395	17.01286546939217	20.29684874020182	47.28158807235362	19.93291096152964	22.56552125473764	30.26735517682476	44.70811456204505	278.5970676948858	45.61890686154271
0.93	144.9853930065238	41.93145119142979	21.52975407510948	27.88968133962589	73.73359989184419	17.08052637859186	10.61181153962172	16.97871364184606	19.91380532757892	49.27416200923864	19.74288230649704	21.75498477381699	29.96505587408938	44.26459420855171	279.2996919363382	48.35844177729151
0.9399999999999999	129.4137109047644	44.52367457623657	22.06253532150528	28.61686095054913	72.87205467578961	16.81550763267154	10.13182725663731	16.90831287843836	19.45829482923275	51.12652166574075	19.49745129396512	20.88373722889688	29.54338756811327	43.63197520294081	278.3652823814129	51.079181460266
0.95	114.1503043984701	46.9996941780742	22.72049781502582	29.29109196006198	71.71832391177678	16.65854183976019	9.653446135450908	16.79868369311154	18.9339540759953	52.81702958958321	19.19946449929513	19.9604767858447	29.00894309358681	42.8181662167853	275.8151144518574	53.75801861743751
0.96	99.31791546440995	49.33409288959026	23.51764090665056	29.90509604393991	70.29050725858335	16.61397874881794	9.178719637474224	16.64763555186033	18.34525762504132	54.32511476725526	18.85238160351426	18.99433348512878	28.36956446553664	41.83320102188959	271.693518037312	56.37219588400014
0.97	85.02762676042573	51.50255569171432	24.4671220505698	30.45212907745351	68.61059110714244	16.68489759172594	8.709639468648515	16.45384009525239	17.69753170597631	55.63161747093854	18.46020948713458	17.99473843233632	27.63418299311547	40.68904903031044	266.0665482393135	58.8994795202095
0.98	71.37788296809579	53.48231140448207	25.58105935043029	30.92599163103461	66.70409265235232	16.87309215104875	8.24814787440692	16.21688441709594	16.99695586110086	56.71913721885709	18.02742522628361	16.97129220157004	26.8126418386521	39.39939137797694	259.0201776292459	61.31831838064145
0.99	58.45379941531751	55.2525603335479	26.87032970361389	31.32104266179937	64.59965365063553	17.17907225519938	7.796147612215128	15.93730219576247	16.25054844620337	57.57237738871802	17.55889062547362	15.93363424559789	25.91550616179287	37.97936880515668	250.658115705388	63.60798867282649
1	46.32674805375103	56.7948747161941	28.34436275157948	31.63221745889308	62.32859842369058	17.6020808353275	7.355510831002893	15.61658118405748	15.46613328265943	58.17847927525674	17.05976090222741	14.8913148461613	24.953866100065	36.44530810798633	241.0993554171989	65.74872615242967
1.01	35.05420635951086	58.09355875282228	30.0109306975427	31.85505024511135	59.92446902890096	18.14012560472822	6.928086160931078	15.2571465665645	14.65228639059164	58.52733729101242	16.53539013601644	13.85367108204444	23.9391376951337	34.81443444562591	230.4755368506723	67.72184797020917
1.02	24.67985100304581	59.13595564601272	31.87593396710866	31.98570156198179	57.42254825430141	18.79002442169837	6.515703379005244	14.86232074162018	13.81826342317262	58.61188557610493	15.99123603339569	12.82970834014665	22.88286646653369	33.10457715511553	218.9282082154792	69.50986622347685
1.03	15.23387512757349	59.9126905432185	33.94318269847928	32.02099060018809	54.8593784334067	19.54746346847086	6.12017503363502	14.43626099343566	12.97390975372099	58.4283449470589	15.43276641955246	11.82798895409427	21.79653784224453	31.33387669404606	206.6060550001301	71.09659445180236
1.04	6.733505753976645	60.41784072937457	36.21417464051401	31.95843260099457	52.27228130882531	20.40706750438317	5.743294466160399	13.98387725899223	12.12955594659787	57.97641834154544	14.86536965434679	10.85652957895578	20.69139822167387	29.52049979628548	193.6621595056502	72.4672474569461
1.05	-0.8163038200668846	60.64902784978086	38.68787178339337	31.79628099367883	49.69888176701666	21.36248156160771	5.386829872698089	13.51073277709602	11.29590161280202	57.25942294894693	14.29427091095194	9.922708870650938	19.57829006854911	27.68236903703062	180.2513447948261	73.60853470123982
1.06	-7.422032763092358	60.60743086737531	41.36048081870333	31.53357306632316	47.17663673523381	22.40646347600179	5.052514387236213	13.02293083693494	10.48389062657623	56.28434827938281	13.72445594937119	9.033186892728402	18.46750403186352	25.83691200283605	166.5276494124103	74.50874831725675
1.07	-13.10062913376567	60.2977222058187	44.22524524166573	31.17017706165675	44.74237006298868	23.53098657836719	4.742032507881626	12.52699113037089	9.704580570226961	55.06183188468201	13.16060362898856	8.193837399196465	17.36865059337005	24.00083425717263	152.6419721271928	75.15784793137119
1.08	-17.87845037935199	59.72793282444406	47.27225847811438	30.70683811142998	42.43181451645403	24.72735168707308	4.45700342695181	12.02971933340579	8.969009160165326	53.60604840660642	12.60702793377104	7.409693775731964	16.29055311064228	22.18991922708144	138.7399193427042	75.54754543664313
1.09	-21.79013368176811	58.90925470498798	50.48830780122374	30.1452206125225	40.27916277297663	25.98630714580586	4.198961930205368	11.53807345326511	8.288060268471003	51.93451248526358	12.06762985559555	6.684909030697606	15.24116341276772	20.41885696656446	124.9598814114604	75.67139321173941
1.1	-24.87742090698213	57.85579110507274	53.85675870663221	29.48794524638171	38.31663047179689	27.2981750241055	3.969337526638013	11.05903019532749	7.672331952699187	50.06780085793475	11.54585925760282	6.022729872109515	14.22750039375962	18.7011025755655	111.4313575694468	75.52487904247829
1.11	-27.18796156598727	56.58426576925676	57.35748924328067	28.7386192578028	36.57403581489783	28.65298087982633	3.769432420207896	10.59945421559842	7.132008628973391	48.02920297528446	11.04468681754308	5.425484633175631	13.25561138323874	17.04876406041858	98.27354260048301	75.10553012615156
1.12	-28.77411560069229	55.11370223898729	60.96688342541864	27.90185852921547	35.07840144052128	30.04058387102237	3.600398891303848	10.16597271345118	6.676739184187804	45.84431217639219	10.56658614220477	4.894584636357645	12.33055544368045	15.47251873726353	85.5941819850578	74.41302678826595
1.13	-29.69177606867833	53.46508362788305	64.65789215763522	26.9832996812174	33.85358496206411	31.45080373011592	3.463216626701195	9.764857433980236	6.31552244921677	43.54057076464139	10.11352598985694	4.430538482023099	11.45640712729332	13.98155687665365	73.48869649570099	73.44932382527132
1.14	-29.99922997092972	51.66100179300982	68.4001691125688	25.98960034488682	32.91994474194028	32.87354134866717	3.35867051028244	9.401915827553278	6.056601083989918	41.14678264697699	9.686972270808731	4.032978656061269	10.63627864166642	12.58355105234319	62.03957196945202	72.21877415087579
1.15	-29.75607352334865	49.72530300411103	72.16028758633334	24.92842598207503	32.29404727189499	34.29889038375186	3.287329361361754	9.082392877572737	5.90736460387612	38.6926071151544	9.287899255460559	3.700699746146514	9.872357862453743	11.28464949812473	51.31600513756059	70.72824648684488
1.16	-29.02219607553531	47.68273544352891	75.90204230788922	23.80842189905683	31.98842190065761	35.71723814609652	3.249526079746193	8.810884913740527	5.874262031349534	36.20804696858382	8.916809269102465	3.431707448638351	9.165959222357968	10.08949164667063	41.37379188319259	68.98722694221495
1.17	-27.85684464213512	45.5586024202535	79.58683753880474	22.63916921773544	32.01136758900477	37.11935495311035	3.245339617171004	8.591266493817027	5.962724466337208	33.72294332529895	8.573760034421419	3.223277448263449	8.517584251686086	9.001243899775528	32.25544033924234	67.0078937743738
1.18	-26.31777871695012	43.378424047548	83.17415990529214	21.43112375625887	32.36681509385576	38.49647204096918	3.274579152130027	8.426631135459203	6.177097687744843	31.26648818682667	8.258398661354077	3.072023160843892	7.926988578929154	8.021653564817017	23.99048810768016	64.80515524849805
1.19	-24.46052277987908	41.1676093328445	86.62213164566047	20.19553733971474	33.05424676515326	39.84034876335845	3.336770823627385	8.319246367275683	6.520584713465925	28.8667643602669	7.9700011031614	2.97397124267493	7.393252644433727	7.151118823018853	16.59600067377044	62.39664203229918
1.2	-22.33772170858209	38.95114027628218	89.88813753626405	18.94436192919038	34.06867518654547	41.14332988613182	3.431147383118097	8.270523295229648	6.995198095681823	26.55032083328295	7.707515801564014	2.924643685523044	6.914854152791495	6.38877258952224	10.07722670259156	59.80264785376964
